<?xml version="1.0" encoding="UTF-8" standalone="no"?>
<svg
   width="140"
   height="50"
   viewBox="0 0 140 50"
   fill="none"
   version="1.1"
   id="svg3"
   xmlns="http://www.w3.org/2000/svg"
   xmlns:svg="http://www.w3.org/2000/svg">
  <rect
     width="50"
     height="50"
     rx="22"
     fill="url(#paint0_linear_144_6785)"
     id="rect1"
     x="0"
     y="0"
     style="fill:url(#paint0_linear_144_6785)" />
  <path
     fill-rule="evenodd"
     clip-rule="evenodd"
     d="m 12.999,23.5386 1.4995,0.8789 v 1.7552 1.7577 1.7552 1.7551 l 1.4995,0.8789 1.4995,0.8788 1.4995,0.8789 1.4995,0.8788 1.4994,0.8789 1.4995,0.8788 1.4995,0.8789 1.4995,-0.8789 1.4995,-0.8788 1.4995,-0.8789 1.4995,-0.8788 1.4995,-0.8789 1.4995,-0.8788 1.4995,-0.8789 v -1.7551 -1.7552 -1.7577 -1.7552 l 1.4995,-0.8789 v 3.1786 c -0.1241,0.076 -0.2077,0.2204 -0.2077,0.3723 0,0.152 0.0709,0.2735 0.1773,0.3521 l -0.0507,0.1545 -0.3014,0.9421 h 0.6028 0.6029 L 37.5127,27.5961 37.462,27.4416 c 0.1089,-0.0786 0.1773,-0.1849 0.1773,-0.3521 0,-0.1671 -0.1216,-0.352 -0.2887,-0.4128 v -3.3508 l -11.9884,-7.0258 0.3622,-0.2127 12.001,7.0257 0.7751,-0.4533 L 40,21.7809 38.5005,20.9021 37.001,20.0232 35.5015,19.1444 33.9995,18.2681 32.5,17.3892 31.0005,16.5103 29.501,15.634 28.0015,14.7552 26.502,13.8763 25,13 23.5005,13.8789 22.001,14.7577 20.499,15.634 18.9995,16.5129 17.5,17.3917 16.0005,18.2681 14.501,19.1469 13.0015,20.0258 11.502,20.9046 10,21.7809 11.4995,22.6598 Z M 23.5005,20.9046 25,20.0258 26.4995,20.9046 27.999,21.7835 26.4995,22.6623 25,23.5412 23.5005,24.4175 v 1.7577 L 25,27.0541 l 1.4995,-0.8789 1.4995,-0.8789 1.4995,-0.8788 1.4995,-0.8789 1.4995,-0.8788 1.0309,-0.6053 0.4686,-0.2736 -1.2741,-0.7446 -0.2254,-0.1317 -1.4995,-0.8788 -1.4995,-0.8789 -1.497,-0.8788 -1.4995,-0.8789 -1.4995,-0.8789 -1.502,0.8814 -1.4995,0.8764 -1.4995,0.8788 -1.4995,0.8789 -1.4995,0.8788 -1.4995,0.8789 1.4995,0.8788 v 1.7552 1.7552 1.7577 0.9016 0.8536 l 1.4995,0.8788 1.4995,0.8789 1.4995,0.8788 1.4995,0.8789 1.4995,0.8788 1.4995,-0.8788 1.4995,-0.8789 1.4995,-0.8788 1.4995,-0.8789 1.4995,-0.8788 V 27.9304 26.1727 L 30.998,27.0515 29.4985,27.9304 27.999,28.8092 26.4995,29.6881 25,30.5669 23.5005,29.6856 22.001,28.8067 20.5015,27.9278 v -5.268 l 1.4995,-0.8789 z"
     fill="#ffffff"
     id="path2" />
  <defs
     id="defs3">
    <linearGradient
       id="paint0_linear_144_6785"
       x1="39"
       y1="45"
       x2="5"
       y2="6"
       gradientUnits="userSpaceOnUse">
      <stop
         stop-color="#6440FB"
         id="stop2" />
      <stop
         offset="1"
         stop-color="#8466FF"
         id="stop3" />
    </linearGradient>
  </defs>
  <text
     xml:space="preserve"
     style="font-weight:bold;font-size:21.3333px;font-family:'Gill Sans MT';-inkscape-font-specification:'Gill Sans MT, Bold';fill:#1a064f"
     x="54.077248"
     y="31.545065"
     id="text3"><tspan
       id="tspan3"
       x="54.077248"
       y="31.545065">Ynotedu</tspan></text>
</svg>
